<?xml version="1.0" encoding="utf-8"?>
<!-- Generator: Adobe Illustrator 16.0.0, SVG Export Plug-In . SVG Version: 6.00 Build 0)  -->
<!DOCTYPE svg PUBLIC "-//W3C//DTD SVG 1.1//EN" "http://www.w3.org/Graphics/SVG/1.1/DTD/svg11.dtd">
<svg version="1.1" id="Layer_1" xmlns="http://www.w3.org/2000/svg" xmlns:xlink="http://www.w3.org/1999/xlink" x="0px" y="0px"
	 width="1942px" height="274.333px" viewBox="0 0 1942 274.333" enable-background="new 0 0 1942 274.333" xml:space="preserve">
<g>
	<g>
		<g>
			<path d="M266.729,12.827v-10H1.608v269.46l132.561-88.371l132.56,88.371v-164.42h-10v145.741l-122.56-81.711L11.608,253.607
				V12.827H266.729z"/>
		</g>
	</g>
	<g>
		<path d="M402.419,79.886H353.86v-7.442h105.113v7.442h-48.559V202.67h-7.996V79.886z"/>
		<path d="M491.712,72.444h7.996v61.206h82.604V72.444h7.998V202.67h-7.998v-61.578h-82.604v61.578h-7.996V72.444z"/>
		<path d="M641.65,72.444h71.253v7.442h-63.256v53.39h51.908v7.443h-51.908v54.508h66.788v7.443H641.65V72.444z"/>
		<path d="M834.938,71.327l25.677,96.369c1.859,7.256,2.787,13.953,2.787,13.953h0.373c0,0,0.559-6.885,2.418-13.953l24.186-96.369
			h18.977L874.939,202.67h-21.396l-22.698-85.205c-2.231-8.371-3.905-18.604-3.905-18.604h-0.373c0,0-1.673,10.232-3.905,18.604
			l-22.698,85.205h-21.395L745.082,71.327h18.976l23.254,96.369c1.678,7.068,2.418,13.953,2.418,13.953h0.373
			c0,0,0.932-6.697,2.791-13.953l25.674-96.369H834.938z"/>
		<path d="M944.324,71.327h18.417v57.672h68.088V71.327h18.422V202.67h-18.422v-57.674h-68.088v57.674h-18.417V71.327z"/>
		<path d="M1096.126,71.327h18.418V202.67h-18.418V71.327z"/>
		<path d="M1189.511,87.328h-45.021V71.327h108.459v16.001h-45.02V202.67h-18.418V87.328z"/>
		<path d="M1282.896,71.327h76.277v16.001h-57.855v41.112h47.066v16.001h-47.066v42.23h61.02v15.998h-79.441V71.327z"/>
		<path d="M1402.89,72.444h43.717c18.975,0,32.932,12.652,32.932,32.556c0,14.139-6.883,23.626-16.93,28.464v0.373
			c12.834,3.536,22.135,16.183,22.135,32.927c0,21.768-15.439,35.906-36.273,35.906h-45.58V72.444z M1446.423,130.49
			c14.508,0,24.74-10.047,24.74-25.49c0-15.253-9.674-25.113-24.926-25.113h-35.352v50.604H1446.423z M1447.724,195.227
			c17.488,0,28.65-10.787,28.65-28.463c0-17.672-12.094-28.835-28.836-28.835h-36.652v57.298H1447.724z"/>
		<path d="M1585.943,70.211c36.279,0,65.857,29.023,65.857,66.415c0,38.325-29.578,68.276-65.857,68.276
			c-36.277,0-65.855-29.951-65.855-68.276C1520.087,99.235,1549.666,70.211,1585.943,70.211z M1585.943,197.277
			c31.814,0,57.486-26.418,57.486-60.651c0-33.3-25.672-58.786-57.486-58.786c-31.813,0-57.486,25.486-57.486,58.786
			C1528.457,170.859,1554.13,197.277,1585.943,197.277z"/>
		<path d="M1750.767,70.211c36.277,0,65.855,29.023,65.855,66.415c0,38.325-29.578,68.276-65.855,68.276
			c-36.279,0-65.857-29.951-65.857-68.276C1684.91,99.235,1714.488,70.211,1750.767,70.211z M1750.767,197.277
			c31.813,0,57.486-26.418,57.486-60.651c0-33.3-25.674-58.786-57.486-58.786c-31.814,0-57.486,25.486-57.486,58.786
			C1693.281,170.859,1718.953,197.277,1750.767,197.277z"/>
		<path d="M1858.845,72.444h8.002v58.046h24.184l37.207-58.046h9.674l-39.998,61.393v0.372l42.604,68.461h-9.674l-39.813-64.742
			h-24.184v64.742h-8.002V72.444z"/>
	</g>
</g>
</svg>
