<?xml version="1.0" encoding="utf-8"?>
<!-- Generator: Adobe Illustrator 16.0.0, SVG Export Plug-In . SVG Version: 6.00 Build 0)  -->
<!DOCTYPE svg PUBLIC "-//W3C//DTD SVG 1.1//EN" "http://www.w3.org/Graphics/SVG/1.1/DTD/svg11.dtd">
<svg version="1.1" id="Layer_1" xmlns="http://www.w3.org/2000/svg" xmlns:xlink="http://www.w3.org/1999/xlink" x="0px" y="0px"
	 width="230px" height="77px" viewBox="0 0 230 77" enable-background="new 0 0 230 77" xml:space="preserve">
<g>
	<path fill="#FFFFFF" d="M92.706,1.01h9.781l5.834,19.28h0.083l5.877-19.28h9.537v1.038h-4.045V27.24h4.045v1.038h-12.832V27.24
		h4.171V1.576h-0.082l-8.114,26.702h-0.936L97.911,1.576h-0.083V27.24H102v1.038h-9.294V27.24h4.084V2.048h-4.084V1.01z"/>
	<path fill="#FFFFFF" d="M130.227,9.98l5.438,10.626l4.735-10.626h-3.376V8.99h6.87v0.99h-2.577l-7.83,17.73
		c-1.125,2.531-2.077,4.303-2.858,5.313c-0.788,1.01-1.74,1.521-2.866,1.521c-0.697,0-1.239-0.229-1.619-0.677
		c-0.386-0.437-0.573-0.947-0.573-1.5c0-0.521,0.161-0.938,0.494-1.261c0.33-0.322,0.719-0.489,1.173-0.489
		c0.636,0,1.126,0.292,1.479,0.875c0.35,0.583,0.641,0.875,0.869,0.875c0.35,0,0.725-0.313,1.126-0.948s1.011-1.875,1.828-3.709
		l1.26-2.854L126.132,9.98h-2.313V8.99h9.341v0.99H130.227z"/>
</g>
<path fill="#FFFFFF" d="M33.72,48.883l7.274,17.653L51.98,36.938h-5.84V35.41h11.68v1.528h-4.132L38.865,76.479h-1.048
	l-7.662-18.588l-7.484,18.588H21.56L5.453,36.938H0.962V35.41h41.885v1.528h-4.306L33.72,48.883z M24.888,66.906l4.399-11.077
	L21.56,36.938h-8.89L24.888,66.906z M28.87,36.938l4.04,9.851l3.981-9.851H28.87z"/>
<path fill="#FFFFFF" d="M58.076,74.453V47.726h-3.369v-1.099h3.235c1.945,0,3.392-0.104,4.342-0.325v16.091h0.086
	c1.436-2.708,3.45-4.075,6.036-4.075c1.054,0,2.073,0.266,3.062,0.81c0.996,0.545,1.633,1.309,1.911,2.315
	C73.662,62.45,73.8,64.06,73.8,66.28v8.173h2.784v1.1h-9.752v-1.1h2.784v-8.589c0-2.326-0.064-3.981-0.197-4.966
	c-0.128-0.983-0.776-1.48-1.939-1.48c-1.25,0-2.303,0.543-3.16,1.607c-0.856,1.077-1.412,2.165-1.662,3.275
	c-0.254,1.112-0.375,2.94-0.375,5.477v4.676h2.778v1.1H55.031v-1.1H58.076z"/>
<path fill="#FFFFFF" d="M86.042,58.271v16.183h2.825v1.1h-10.03v-1.1h3.015V59.695h-3.015v-1.102h3.061
	C83.369,58.594,84.747,58.49,86.042,58.271z M81.701,49.973c0-0.637,0.232-1.182,0.706-1.644c0.463-0.451,1.019-0.684,1.644-0.684
	c0.637,0,1.18,0.219,1.655,0.671c0.464,0.462,0.697,1.008,0.697,1.656c0,0.669-0.222,1.237-0.684,1.677
	c-0.462,0.451-1.02,0.672-1.668,0.672c-0.648,0-1.191-0.221-1.655-0.682C81.933,51.187,81.701,50.632,81.701,49.973z"/>
<path fill="#FFFFFF" d="M98.603,53.688v4.906h5.117v1.102h-5.117v10.684c0,1.563,0.103,2.639,0.312,3.207
	c0.209,0.578,0.764,0.867,1.679,0.867c0.684,0,1.354-0.231,1.991-0.695c0.637-0.45,1.124-1.167,1.458-2.129h0.926
	c-0.66,2.79-2.661,4.18-6.02,4.18c-1.412,0-2.442-0.256-3.102-0.766c-0.66-0.509-1.076-1.133-1.226-1.886
	c-0.152-0.741-0.22-1.76-0.22-3.045V59.695h-3.843v-1.102h3.843v-4.548C95.824,54.046,97.225,53.932,98.603,53.688z"/>
<path fill="#FFFFFF" d="M122.32,65.783h-10.915c-0.104,4.259,0.139,6.876,0.705,7.859c0.58,0.984,1.611,1.482,3.091,1.482
	c3.044,0,5.105-1.771,6.195-5.313h0.925c-0.475,2.141-1.378,3.728-2.696,4.745c-1.333,1.02-2.802,1.54-4.423,1.54
	c-2.315,0-4.33-0.867-6.042-2.581c-1.713-1.725-2.569-3.877-2.569-6.482c0-2.534,0.832-4.654,2.512-6.39
	c1.678-1.725,3.622-2.581,5.832-2.581c1.933,0,3.623,0.682,5.06,2.049C121.44,61.478,122.216,63.364,122.32,65.783z M111.405,64.811
	h6.273c0.114-1.018,0.174-1.795,0.174-2.327c0-2.303-1.042-3.449-3.127-3.449c-1.042,0-1.851,0.279-2.443,0.823
	c-0.588,0.556-0.877,1.307-0.877,2.255V64.811z"/>
<path fill="#FFFFFF" d="M141.009,74.453V47.726h-4.456v-1.099h14.941c1.643,0,3.021,0.079,4.146,0.255
	c1.124,0.161,2.198,0.589,3.239,1.272c1.031,0.694,1.772,1.552,2.225,2.559c0.461,1.018,0.683,1.979,0.683,2.881
	c0,3.439-2.64,5.684-7.918,6.749v0.115c5.962,0.962,8.938,3.427,8.938,7.42c0,0.974-0.267,2.004-0.798,3.092
	c-0.535,1.087-1.391,2.024-2.549,2.813c-1.167,0.8-2.361,1.285-3.575,1.481c-1.218,0.197-2.747,0.289-4.585,0.289h-14.746v-1.1
	H141.009z M150.568,47.726h-4.42v12.143h3.971c2.686,0,4.408-0.521,5.149-1.572c0.753-1.042,1.124-2.698,1.124-4.956
	c0-1.771-0.243-3.056-0.731-3.865c-0.484-0.799-1.11-1.296-1.863-1.483C153.033,47.818,151.97,47.726,150.568,47.726z
	 M150.07,60.968h-3.922v13.485h4.05c1.517,0,2.721-0.115,3.614-0.346c0.9-0.234,1.665-0.848,2.303-1.841
	c0.636-1.009,0.948-2.57,0.948-4.713c0-2.291-0.475-3.959-1.436-5.011C154.666,61.5,152.814,60.968,150.07,60.968z"/>
<path fill="#FFFFFF" d="M166.111,67.033c0-2.489,0.856-4.605,2.569-6.354c1.702-1.747,3.831-2.616,6.354-2.616
	c2.477,0,4.572,0.834,6.297,2.512c1.713,1.679,2.57,3.774,2.57,6.285c0,2.571-0.891,4.758-2.674,6.552
	c-1.783,1.784-3.89,2.686-6.32,2.686c-2.386,0-4.444-0.879-6.19-2.627C166.979,71.721,166.111,69.581,166.111,67.033z
	 M179.052,67.033c0-2.65-0.091-4.387-0.266-5.244c-0.185-0.844-0.59-1.516-1.215-2.014c-0.624-0.498-1.483-0.741-2.569-0.741
	c-1.044,0-1.898,0.256-2.559,0.765c-0.673,0.509-1.088,1.192-1.238,2.038c-0.162,0.844-0.244,2.592-0.244,5.242
	c0,2.651,0.095,4.423,0.29,5.279c0.197,0.868,0.624,1.539,1.271,2.025c0.66,0.497,1.484,0.741,2.479,0.741
	c1.005,0,1.84-0.254,2.51-0.752c0.66-0.486,1.09-1.182,1.274-2.061C178.961,71.42,179.052,69.661,179.052,67.033z"/>
<path fill="#FFFFFF" d="M187.685,67.033c0-2.489,0.857-4.605,2.57-6.354c1.7-1.747,3.831-2.616,6.355-2.616
	c2.477,0,4.572,0.834,6.296,2.512c1.713,1.679,2.569,3.774,2.569,6.285c0,2.571-0.891,4.758-2.675,6.552
	c-1.781,1.784-3.888,2.686-6.318,2.686c-2.386,0-4.444-0.879-6.193-2.627C188.554,71.721,187.685,69.581,187.685,67.033z
	 M200.626,67.033c0-2.65-0.095-4.387-0.267-5.244c-0.184-0.844-0.592-1.516-1.214-2.014c-0.626-0.498-1.483-0.741-2.57-0.741
	c-1.044,0-1.899,0.256-2.558,0.765c-0.674,0.509-1.088,1.192-1.239,2.038c-0.16,0.844-0.243,2.592-0.243,5.242
	c0,2.651,0.094,4.423,0.289,5.279c0.196,0.868,0.625,1.539,1.272,2.025c0.661,0.497,1.483,0.741,2.479,0.741
	c1.005,0,1.841-0.254,2.512-0.752c0.658-0.486,1.089-1.182,1.272-2.061C200.531,71.42,200.626,69.661,200.626,67.033z"/>
<path fill="#FFFFFF" d="M211.213,74.453V47.726h-3.104v-1.099h2.871c1.424,0,2.895-0.104,4.42-0.325v28.151h2.78v1.1h-10.071v-1.1
	H211.213z M222.995,74.453l-7.097-8.345l6.876-6.413h-3.623v-1.102h9.11v1.102h-4.097l-4.794,4.423l8.891,10.335h1.898v1.1h-10.254
	v-1.1H222.995z"/>
</svg>
