<?xml version="1.0" encoding="utf-8"?>
<!-- Generator: Adobe Illustrator 16.0.0, SVG Export Plug-In . SVG Version: 6.00 Build 0)  -->
<!DOCTYPE svg PUBLIC "-//W3C//DTD SVG 1.1//EN" "http://www.w3.org/Graphics/SVG/1.1/DTD/svg11.dtd">
<svg version="1.1" id="Layer_1" xmlns="http://www.w3.org/2000/svg" xmlns:xlink="http://www.w3.org/1999/xlink" x="0px" y="0px"
	 width="26.063px" height="5.375px" viewBox="0 0 26.063 5.375" enable-background="new 0 0 26.063 5.375" xml:space="preserve">
<g>
	<path d="M0.411,0.589h1.215L2.35,2.983h0.01l0.73-2.395h1.185v0.129H3.772v3.129h0.502v0.129H2.681V3.847h0.518V0.659h-0.01
		L2.181,3.976H2.065L1.057,0.659h-0.01v3.188h0.518v0.129H0.411V3.847h0.507V0.718H0.411V0.589z"/>
	<path d="M4.979,2.638l0.51,0.996l0.444-0.996H5.616V2.545H6.26v0.093H6.018L5.284,4.3C5.179,4.537,5.089,4.703,5.016,4.798
		C4.942,4.893,4.853,4.94,4.748,4.94c-0.065,0-0.116-0.021-0.152-0.063C4.56,4.836,4.542,4.788,4.542,4.736
		c0-0.049,0.015-0.088,0.046-0.118c0.031-0.03,0.067-0.046,0.11-0.046c0.06,0,0.105,0.027,0.139,0.082
		c0.033,0.055,0.06,0.082,0.082,0.082c0.033,0,0.068-0.029,0.105-0.089S5.119,4.472,5.195,4.3l0.118-0.268L4.595,2.638H4.378V2.545
		h0.875v0.093H4.979z"/>
	<path d="M9.755,1.726l0.614,1.489l0.927-2.497h-0.493V0.589h0.985v0.129H11.44l-1.25,3.336h-0.088L9.455,2.485L8.823,4.054H8.729
		L7.371,0.718H6.992V0.589h3.534v0.129h-0.363L9.755,1.726z M9.01,3.246l0.371-0.935L8.729,0.718h-0.75L9.01,3.246z M9.346,0.718
		l0.341,0.831l0.336-0.831H9.346z"/>
	<path d="M12.049,3.883V1.628h-0.284V1.535h0.273c0.164,0,0.286-0.009,0.366-0.027v1.357h0.007c0.121-0.229,0.291-0.344,0.509-0.344
		c0.089,0,0.175,0.022,0.258,0.068c0.084,0.046,0.138,0.11,0.161,0.195c0.024,0.085,0.036,0.221,0.036,0.408v0.689h0.235v0.093
		h-0.823V3.883h0.235V3.158c0-0.196-0.005-0.336-0.017-0.419c-0.011-0.083-0.065-0.125-0.164-0.125
		c-0.105,0-0.194,0.046-0.267,0.136c-0.072,0.091-0.119,0.183-0.14,0.276c-0.021,0.094-0.032,0.248-0.032,0.462v0.395h0.234v0.093
		h-0.846V3.883H12.049z"/>
	<path d="M14.243,2.518v1.365h0.238v0.093h-0.846V3.883h0.254V2.638h-0.254V2.545h0.258C14.018,2.545,14.134,2.536,14.243,2.518z
		 M13.877,1.817c0-0.054,0.02-0.1,0.06-0.139c0.039-0.038,0.086-0.058,0.139-0.058c0.054,0,0.1,0.019,0.14,0.057
		c0.039,0.039,0.059,0.085,0.059,0.14c0,0.057-0.019,0.104-0.058,0.142c-0.039,0.038-0.086,0.057-0.141,0.057
		s-0.101-0.019-0.14-0.058C13.896,1.92,13.877,1.873,13.877,1.817z"/>
	<path d="M15.138,2.131v0.414h0.432v0.093h-0.432v0.901c0,0.132,0.009,0.223,0.026,0.271c0.018,0.049,0.064,0.073,0.142,0.073
		c0.058,0,0.114-0.02,0.168-0.059c0.054-0.038,0.095-0.099,0.123-0.18h0.078c-0.056,0.235-0.225,0.353-0.508,0.353
		c-0.119,0-0.206-0.021-0.262-0.064s-0.091-0.096-0.104-0.159c-0.013-0.063-0.019-0.148-0.019-0.257V2.638h-0.324V2.545h0.324V2.161
		C14.903,2.161,15.021,2.151,15.138,2.131z"/>
	<path d="M17.062,3.151h-0.921c-0.009,0.359,0.012,0.58,0.06,0.663c0.049,0.083,0.136,0.125,0.261,0.125
		c0.257,0,0.431-0.149,0.522-0.448h0.078c-0.04,0.181-0.116,0.314-0.228,0.4c-0.112,0.086-0.236,0.13-0.373,0.13
		c-0.195,0-0.365-0.073-0.51-0.218c-0.145-0.146-0.217-0.327-0.217-0.547c0-0.214,0.07-0.393,0.212-0.539
		C16.088,2.572,16.252,2.5,16.438,2.5c0.163,0,0.306,0.058,0.427,0.173C16.987,2.788,17.053,2.947,17.062,3.151z M16.141,3.069
		h0.529c0.01-0.086,0.015-0.151,0.015-0.196c0-0.194-0.088-0.291-0.264-0.291c-0.088,0-0.156,0.023-0.206,0.069
		c-0.05,0.047-0.074,0.11-0.074,0.19V3.069z"/>
	<path d="M18.301,3.883V1.628h-0.376V1.535h1.261c0.139,0,0.255,0.007,0.35,0.021c0.095,0.014,0.186,0.05,0.273,0.107
		c0.087,0.059,0.149,0.131,0.188,0.216c0.039,0.086,0.058,0.167,0.058,0.243c0,0.29-0.223,0.479-0.668,0.569v0.01
		c0.503,0.081,0.754,0.289,0.754,0.626c0,0.082-0.022,0.169-0.067,0.261s-0.117,0.171-0.215,0.237
		c-0.099,0.067-0.199,0.108-0.302,0.125s-0.231,0.024-0.387,0.024h-1.244V3.883H18.301z M19.107,1.628h-0.373v1.024h0.335
		c0.227,0,0.372-0.044,0.435-0.133c0.063-0.088,0.095-0.228,0.095-0.418c0-0.149-0.021-0.258-0.062-0.326
		c-0.041-0.067-0.094-0.109-0.157-0.125C19.315,1.636,19.226,1.628,19.107,1.628z M19.065,2.745h-0.331v1.138h0.342
		c0.128,0,0.229-0.01,0.305-0.029c0.076-0.02,0.141-0.071,0.194-0.155c0.054-0.085,0.08-0.217,0.08-0.397
		c0-0.193-0.04-0.334-0.121-0.423C19.453,2.79,19.297,2.745,19.065,2.745z"/>
	<path d="M20.338,3.257c0-0.21,0.072-0.389,0.217-0.536C20.698,2.573,20.878,2.5,21.091,2.5c0.209,0,0.386,0.07,0.531,0.212
		c0.145,0.142,0.217,0.318,0.217,0.53c0,0.217-0.075,0.401-0.226,0.553c-0.15,0.15-0.328,0.227-0.533,0.227
		c-0.201,0-0.375-0.074-0.522-0.222C20.411,3.652,20.338,3.472,20.338,3.257z M21.43,3.257c0-0.224-0.008-0.37-0.022-0.442
		c-0.016-0.071-0.05-0.128-0.103-0.17s-0.125-0.063-0.217-0.063c-0.088,0-0.16,0.021-0.216,0.064
		c-0.057,0.043-0.092,0.101-0.104,0.172c-0.014,0.071-0.021,0.219-0.021,0.442s0.008,0.373,0.024,0.445
		c0.017,0.073,0.053,0.13,0.107,0.171c0.056,0.042,0.125,0.063,0.209,0.063c0.085,0,0.155-0.021,0.212-0.063
		c0.056-0.041,0.092-0.1,0.107-0.174C21.422,3.627,21.43,3.479,21.43,3.257z"/>
	<path d="M21.989,3.257c0-0.21,0.072-0.389,0.217-0.536C22.35,2.573,22.529,2.5,22.742,2.5c0.209,0,0.386,0.07,0.531,0.212
		c0.145,0.142,0.217,0.318,0.217,0.53c0,0.217-0.075,0.401-0.226,0.553c-0.15,0.15-0.328,0.227-0.533,0.227
		c-0.201,0-0.375-0.074-0.522-0.222C22.063,3.652,21.989,3.472,21.989,3.257z M23.081,3.257c0-0.224-0.008-0.37-0.022-0.442
		c-0.016-0.071-0.05-0.128-0.103-0.17s-0.125-0.063-0.217-0.063c-0.088,0-0.16,0.021-0.216,0.064
		c-0.057,0.043-0.092,0.101-0.104,0.172c-0.014,0.071-0.021,0.219-0.021,0.442s0.008,0.373,0.024,0.445
		c0.017,0.073,0.053,0.13,0.107,0.171c0.056,0.042,0.125,0.063,0.209,0.063c0.085,0,0.155-0.021,0.212-0.063
		c0.056-0.041,0.092-0.1,0.107-0.174C23.073,3.627,23.081,3.479,23.081,3.257z"/>
	<path d="M23.832,3.883V1.628H23.57V1.535h0.242c0.12,0,0.244-0.009,0.373-0.027v2.375h0.234v0.093h-0.85V3.883H23.832z
		 M24.826,3.883l-0.599-0.704l0.58-0.541h-0.306V2.545h0.769v0.093h-0.346l-0.404,0.373l0.75,0.872h0.16v0.093h-0.865V3.883H24.826z
		"/>
</g>
</svg>
