<?xml version="1.0" encoding="utf-8"?>
<!-- Generator: Adobe Illustrator 16.0.0, SVG Export Plug-In . SVG Version: 6.00 Build 0)  -->
<!DOCTYPE svg PUBLIC "-//W3C//DTD SVG 1.1//EN" "http://www.w3.org/Graphics/SVG/1.1/DTD/svg11.dtd">
<svg version="1.1" id="Layer_1" xmlns="http://www.w3.org/2000/svg" xmlns:xlink="http://www.w3.org/1999/xlink" x="0px" y="0px"
	 width="24.125px" height="24px" viewBox="0 0 24.125 24" enable-background="new 0 0 24.125 24" xml:space="preserve">
<g>
	<g>
		<path fill="#020202" d="M9.279,17.714c-4.714,0-8.551-3.837-8.551-8.552s3.837-8.551,8.551-8.551c4.716,0,8.551,3.836,8.551,8.551
			S13.995,17.714,9.279,17.714z M9.279,1.583c-4.178,0-7.579,3.401-7.579,7.58c0,4.18,3.401,7.579,7.579,7.579
			c4.18,0,7.579-3.399,7.579-7.579C16.858,4.983,13.459,1.583,9.279,1.583z"/>
	</g>
	<path d="M22.501,22.701c-0.774,0.771-1.804,0.995-2.299,0.498l-6.366-6.358c-0.495-0.496-0.271-1.522,0.506-2.292l0,0
		c0.775-0.772,1.806-0.996,2.299-0.498l6.365,6.355C23.504,20.903,23.278,21.93,22.501,22.701L22.501,22.701z"/>
</g>
</svg>
