<?xml version="1.0" standalone="no"?>
<!DOCTYPE svg PUBLIC "-//W3C//DTD SVG 20010904//EN"
 "http://www.w3.org/TR/2001/REC-SVG-20010904/DTD/svg10.dtd">
<svg version="1.0" xmlns="http://www.w3.org/2000/svg"
 width="1123.000000pt" height="1123.000000pt" viewBox="0 0 1123.000000 1123.000000"
 preserveAspectRatio="xMidYMid meet">
<metadata>
Created by potrace 1.11, written by Peter Selinger 2001-2013
</metadata>
<g transform="translate(0.000000,1123.000000) scale(0.100000,-0.100000)"
fill="#000000" stroke="none">
<path d="M90 5620 c0 -3086 3 -5610 6 -5610 4 0 4686 3116 4769 3174 11 8 119
80 240 160 121 80 229 152 240 160 51 37 265 176 270 176 3 0 1242 -824 2753
-1831 1511 -1007 2753 -1834 2759 -1836 10 -4 12 706 10 3418 l-2 3424 -207 0
-207 0 0 -3029 c0 -1665 -2 -3030 -4 -3033 -4 -3 -2811 1861 -2852 1894 -5 4
-62 42 -125 83 -63 41 -119 79 -125 83 -5 5 -381 255 -835 557 -454 302 -830
552 -835 557 -6 4 -83 56 -171 115 -148 97 -163 105 -180 92 -11 -8 -228 -154
-484 -324 -256 -170 -472 -314 -480 -320 -8 -5 -440 -293 -960 -640 -520 -346
-952 -634 -960 -640 -76 -53 -2192 -1460 -2196 -1460 -2 0 -4 2254 -4 5010 0
4001 3 5010 13 5011 6 0 2398 1 5314 1 l5302 1 0 209 0 208 -5525 0 -5524 0 0
-5610z"/>
</g>
</svg>
